<!-- Generated by IcoMoon.io -->
<svg version="1.1" xmlns="http://www.w3.org/2000/svg" width="16" height="16" viewBox="0 0 16 16">
<title>linkedin</title>
<rect fill="#fff" x="0" y="0" width="16" height="16"></rect>
<path fill="#fff" d="M15.996 16v-0.001h0.004v-5.868c0-2.871-0.618-5.082-3.974-5.082-1.613 0-2.696 0.885-3.138 1.725h-0.047v-1.457h-3.182v10.682h3.313v-5.289c0-1.393 0.264-2.739 1.989-2.739 1.699 0 1.725 1.589 1.725 2.829v5.201h3.31z"></path>
<path fill="#fff" d="M0.264 5.318h3.317v10.682h-3.317v-10.682z"></path>
<path fill="#fff" d="M1.921 0c-1.061 0-1.921 0.861-1.921 1.921s0.861 1.939 1.921 1.939c1.061 0 1.921-0.879 1.921-1.939s-0.861-1.921-1.921-1.921v0z"></path>
</svg>
