<!-- Generated by IcoMoon.io -->
<svg version="1.1" xmlns="http://www.w3.org/2000/svg" width="28" height="16" viewBox="0 0 28 16">
<title>Logo6</title>
<rect fill="#fff" x="0" y="0" width="28" height="16"></rect>
<path fill="#afb1b8" d="M14.247 7.309c-0.118-0.157-0.175-0.343-0.161-0.53v-0.769c0-0.236 0.053-0.415 0.16-0.537s0.29-0.184 0.551-0.183c0.245 0 0.418 0.052 0.521 0.156 0.112 0.133 0.166 0.296 0.154 0.46v0.181h-0.438v-0.183c0.002-0.060-0.003-0.12-0.013-0.179-0.006-0.041-0.028-0.078-0.063-0.106-0.045-0.031-0.102-0.045-0.159-0.041-0.060-0.004-0.119 0.012-0.167 0.044-0.038 0.031-0.064 0.072-0.072 0.117-0.013 0.063-0.018 0.126-0.017 0.19v0.933c-0.007 0.090 0.012 0.18 0.056 0.262 0.022 0.028 0.052 0.050 0.087 0.064s0.074 0.019 0.113 0.015c0.056 0.004 0.112-0.011 0.155-0.042 0.036-0.031 0.059-0.070 0.065-0.113 0.010-0.062 0.015-0.124 0.014-0.187v-0.189h0.438v0.173c0.012 0.171-0.041 0.341-0.151 0.483-0.101 0.114-0.272 0.171-0.524 0.171s-0.442-0.061-0.55-0.188z"></path>
<path fill="#afb1b8" d="M16.069 7.317c-0.111-0.12-0.166-0.294-0.166-0.525v-0.809c0-0.228 0.055-0.401 0.166-0.519s0.295-0.176 0.554-0.175c0.257 0 0.441 0.058 0.552 0.175s0.167 0.29 0.167 0.519v0.809c0 0.228-0.056 0.404-0.169 0.524s-0.295 0.181-0.55 0.181c-0.255 0-0.443-0.061-0.554-0.18zM16.827 7.123c0.040-0.075 0.058-0.157 0.053-0.239v-0.99c0.005-0.081-0.013-0.161-0.052-0.235-0.022-0.028-0.053-0.051-0.089-0.064s-0.076-0.019-0.115-0.014c-0.039-0.005-0.079 0-0.116 0.014s-0.067 0.036-0.090 0.064c-0.040 0.073-0.058 0.154-0.053 0.235v0.995c-0.006 0.082 0.013 0.164 0.053 0.239 0.026 0.025 0.057 0.045 0.092 0.059s0.074 0.021 0.112 0.021c0.039 0 0.077-0.007 0.112-0.021s0.067-0.034 0.092-0.059v-0.005z"></path>
<path fill="#afb1b8" d="M17.868 5.313h0.471l0.354 1.492 0.362-1.492h0.458l0.046 2.154h-0.339l-0.036-1.497-0.35 1.497h-0.272l-0.362-1.502-0.034 1.502h-0.342l0.043-2.154z"></path>
<path fill="#afb1b8" d="M20.088 5.313h0.734c0.423 0 0.634 0.204 0.634 0.612 0 0.391-0.223 0.585-0.668 0.585h-0.25v0.957h-0.453l0.003-2.154zM20.715 6.233c0.045 0.005 0.090 0.001 0.133-0.010s0.083-0.031 0.116-0.058c0.052-0.073 0.075-0.158 0.065-0.243 0.002-0.066-0.005-0.131-0.022-0.196-0.006-0.021-0.018-0.042-0.033-0.059s-0.035-0.032-0.057-0.043c-0.063-0.026-0.132-0.038-0.202-0.034h-0.176v0.644h0.176z"></path>
<path fill="#afb1b8" d="M22.109 5.313h0.486l0.499 2.154h-0.422l-0.099-0.497h-0.434l-0.101 0.497h-0.428l0.499-2.154zM22.525 6.721l-0.169-0.904-0.169 0.904h0.339z"></path>
<path fill="#afb1b8" d="M23.498 5.313h0.317l0.607 1.229v-1.229h0.376v2.154h-0.302l-0.611-1.283v1.283h-0.389l0.001-2.154z"></path>
<path fill="#afb1b8" d="M25.679 6.646l-0.505-1.33h0.425l0.308 0.854 0.289-0.854h0.416l-0.498 1.33v0.821h-0.435v-0.821z"></path>
<path fill="#afb1b8" d="M14.946 8.408v0.113h-0.37v0.875h-0.155v-0.875h-0.371v-0.113h0.896z"></path>
<path fill="#afb1b8" d="M16.105 9.396h-0.12c-0.012 0.001-0.024-0.003-0.034-0.009s-0.016-0.014-0.020-0.023l-0.107-0.235h-0.513l-0.107 0.235c-0.003 0.010-0.009 0.019-0.016 0.027-0.009 0.007-0.021 0.010-0.034 0.009h-0.12l0.453-0.988h0.158l0.458 0.984zM15.355 9.030h0.428l-0.181-0.402c-0.013-0.030-0.025-0.062-0.034-0.093-0.006 0.019-0.012 0.037-0.017 0.052l-0.016 0.041-0.179 0.401z"></path>
<path fill="#afb1b8" d="M16.886 9.299c0.028 0.001 0.057 0.001 0.085 0 0.024-0.002 0.049-0.006 0.072-0.012 0.022-0.005 0.044-0.011 0.065-0.018 0.020-0.007 0.040-0.016 0.061-0.024v-0.222h-0.181c-0.004 0-0.009-0-0.013-0.002s-0.008-0.003-0.011-0.006c-0.003-0.002-0.005-0.005-0.007-0.008s-0.002-0.006-0.002-0.010v-0.076h0.352v0.379c-0.029 0.018-0.059 0.033-0.091 0.047s-0.066 0.025-0.101 0.034c-0.037 0.009-0.075 0.016-0.113 0.020-0.044 0.004-0.088 0.006-0.132 0.006-0.078 0.001-0.156-0.012-0.228-0.037-0.068-0.024-0.129-0.059-0.181-0.103-0.050-0.045-0.090-0.098-0.117-0.156-0.029-0.066-0.043-0.135-0.042-0.205-0.001-0.070 0.013-0.14 0.041-0.207 0.026-0.059 0.066-0.112 0.117-0.156s0.113-0.079 0.181-0.102c0.078-0.025 0.16-0.038 0.243-0.037 0.042-0 0.084 0.003 0.126 0.009 0.037 0.005 0.073 0.014 0.108 0.025 0.032 0.010 0.062 0.023 0.091 0.039s0.054 0.033 0.079 0.052l-0.044 0.061c-0.003 0.006-0.008 0.010-0.015 0.014s-0.013 0.005-0.021 0.005c-0.010-0-0.020-0.003-0.028-0.008-0.014-0.006-0.028-0.014-0.044-0.023-0.019-0.010-0.040-0.019-0.061-0.027-0.027-0.009-0.055-0.017-0.083-0.022-0.038-0.006-0.076-0.009-0.115-0.009-0.060-0.001-0.119 0.009-0.175 0.027-0.050 0.017-0.096 0.044-0.133 0.078-0.038 0.036-0.066 0.077-0.084 0.123-0.040 0.107-0.040 0.222 0 0.329 0.020 0.046 0.051 0.089 0.091 0.124 0.037 0.034 0.082 0.061 0.132 0.078 0.058 0.017 0.119 0.024 0.179 0.020v0z"></path>
<path fill="#afb1b8" d="M18.33 9.284h0.495v0.113h-0.646v-0.988h0.155l-0.004 0.875z"></path>
<path fill="#afb1b8" d="M19.339 9.396h-0.155v-0.988h0.155v0.988z"></path>
<path fill="#afb1b8" d="M19.915 8.413c0.009 0.005 0.017 0.011 0.024 0.018l0.662 0.745c-0.001-0.012-0.001-0.023 0-0.035s0-0.022 0-0.032v-0.704h0.135v0.992h-0.078c-0.012 0.001-0.023-0.001-0.034-0.005s-0.018-0.011-0.024-0.019l-0.661-0.744c0 0.012 0 0.023 0 0.034s0 0.021 0 0.030v0.704h-0.13v-0.988h0.081c0.009 0 0.017 0.002 0.025 0.005v0z"></path>
<path fill="#afb1b8" d="M21.876 8.408v0.109h-0.549v0.326h0.445v0.105h-0.445v0.337h0.549v0.109h-0.708v-0.986h0.708z"></path>
<path fill="#afb1b8" d="M5.643 2.308l6.879 1.686v5.909l-6.879-1.685v-5.91zM5.202 1.804v6.7l7.76 1.903v-6.699l-7.76-1.904z"></path>
<path fill="#afb1b8" d="M9.361 13.518l-7.761-1.904v-6.7l7.761 1.904v6.7z"></path>
<path fill="#afb1b8" d="M5.331 2.232l6.789 1.665-2.887 2.493-6.79-1.666 2.888-2.493zM5.202 1.804l-3.602 3.11 7.761 1.904 3.601-3.11-7.76-1.904z"></path>
<path fill="#afb1b8" d="M9.798 13.141l3.164-2.733-3.164-0.777v3.509z"></path>
</svg>
