<!-- Generated by IcoMoon.io -->
<svg version="1.1" xmlns="http://www.w3.org/2000/svg" width="28" height="16" viewBox="0 0 28 16">
<title>Logo4</title>
<rect fill="#fff" x="0" y="0" width="28" height="16"></rect>
<path fill="#afb1b8" d="M6.439 5.627h-0.001c-0.639 0-1.158 0.461-1.158 1.029v0.001c0 0.568 0.518 1.029 1.158 1.029h0.001c0.639 0 1.158-0.461 1.158-1.029v-0.001c0-0.568-0.518-1.029-1.158-1.029z"></path>
<path fill="#afb1b8" d="M14.985 5.298c-0.002-0.789-0.355-1.546-0.983-2.104s-1.479-0.873-2.367-0.874v0c-0.888 0.001-1.74 0.316-2.368 0.874s-0.982 1.315-0.984 2.105v4.353c0 0 6.702-0.663 6.703-4.352v-0.001z"></path>
<path fill="#afb1b8" d="M2.933 11.080c0.002 0.549 0.248 1.076 0.685 1.464s1.029 0.607 1.647 0.609c0.618-0.002 1.21-0.22 1.647-0.609s0.683-0.914 0.685-1.464v-3.029c0 0-4.664 0.462-4.664 3.028zM5.265 11.623c-0.121 0-0.239-0.032-0.339-0.091s-0.179-0.144-0.225-0.244c-0.046-0.099-0.058-0.208-0.035-0.314s0.082-0.202 0.167-0.278c0.085-0.076 0.194-0.128 0.313-0.149s0.241-0.010 0.353 0.031c0.112 0.041 0.207 0.111 0.274 0.2s0.103 0.194 0.103 0.302c0 0.071-0.015 0.142-0.046 0.208s-0.075 0.126-0.132 0.177c-0.057 0.051-0.124 0.091-0.198 0.118s-0.154 0.042-0.234 0.042v-0.002z"></path>
<path fill="#afb1b8" d="M9.978 11.324h-0.45v0.465h-0.234v-1.137h0.741v0.19h-0.506v0.294h0.45v0.189zM11.105 11.246c0 0.112-0.020 0.21-0.059 0.295s-0.096 0.149-0.17 0.195c-0.073 0.046-0.158 0.069-0.253 0.069-0.094 0-0.178-0.023-0.252-0.068s-0.131-0.11-0.172-0.194c-0.041-0.084-0.061-0.181-0.062-0.291v-0.056c0-0.112 0.020-0.21 0.060-0.295s0.098-0.151 0.171-0.196c0.074-0.046 0.158-0.069 0.253-0.069s0.179 0.023 0.252 0.069c0.074 0.045 0.131 0.111 0.171 0.196s0.061 0.183 0.061 0.294v0.051zM10.867 11.194c0-0.119-0.021-0.21-0.064-0.272s-0.104-0.093-0.183-0.093c-0.079 0-0.139 0.031-0.182 0.092s-0.064 0.15-0.065 0.269v0.055c0 0.116 0.021 0.206 0.064 0.27s0.104 0.096 0.184 0.096c0.079 0 0.139-0.031 0.181-0.092s0.064-0.152 0.064-0.27v-0.055zM11.865 11.49c0-0.044-0.016-0.078-0.047-0.102s-0.088-0.049-0.169-0.075c-0.081-0.027-0.146-0.053-0.193-0.078-0.129-0.070-0.194-0.164-0.194-0.282 0-0.061 0.017-0.116 0.052-0.164s0.085-0.086 0.149-0.113c0.065-0.027 0.138-0.041 0.219-0.041s0.154 0.015 0.217 0.045c0.064 0.029 0.113 0.071 0.148 0.124s0.053 0.115 0.053 0.183h-0.234c0-0.052-0.016-0.092-0.049-0.121s-0.079-0.044-0.138-0.044c-0.057 0-0.102 0.012-0.134 0.037s-0.048 0.056-0.048 0.095c0 0.037 0.018 0.068 0.055 0.093s0.092 0.048 0.165 0.070c0.133 0.040 0.23 0.090 0.291 0.149s0.091 0.133 0.091 0.222c0 0.098-0.037 0.176-0.112 0.232s-0.175 0.084-0.301 0.084c-0.088 0-0.167-0.016-0.239-0.048s-0.127-0.076-0.165-0.132c-0.038-0.056-0.056-0.12-0.056-0.194h0.235c0 0.126 0.075 0.188 0.225 0.188 0.056 0 0.099-0.011 0.13-0.034s0.047-0.055 0.047-0.095zM13.116 10.841h-0.348v0.948h-0.234v-0.948h-0.344v-0.19h0.927v0.19zM13.934 11.296h-0.45v0.305h0.528v0.188h-0.762v-1.137h0.761v0.19h-0.527v0.271h0.45v0.184zM14.571 11.372h-0.187v0.416h-0.234v-1.137h0.423c0.134 0 0.238 0.030 0.311 0.090s0.109 0.145 0.109 0.254c0 0.078-0.017 0.142-0.051 0.195s-0.084 0.093-0.152 0.123l0.246 0.465v0.011h-0.252l-0.213-0.416zM14.384 11.182h0.189c0.059 0 0.104-0.015 0.137-0.045s0.048-0.072 0.048-0.124c0-0.054-0.015-0.096-0.046-0.127s-0.077-0.046-0.14-0.046h-0.188v0.341zM15.805 11.388v0.401h-0.234v-1.137h0.444c0.085 0 0.16 0.016 0.225 0.047s0.115 0.076 0.15 0.134c0.035 0.057 0.052 0.123 0.052 0.196 0 0.111-0.038 0.199-0.115 0.264s-0.182 0.096-0.316 0.096h-0.205zM15.805 11.198h0.209c0.062 0 0.109-0.015 0.141-0.044s0.049-0.071 0.049-0.125c0-0.056-0.016-0.101-0.049-0.135s-0.078-0.052-0.136-0.053h-0.215v0.357zM17.287 11.296h-0.45v0.305h0.528v0.188h-0.762v-1.137h0.761v0.19h-0.527v0.271h0.45v0.184zM18.375 10.841h-0.348v0.948h-0.234v-0.948h-0.344v-0.19h0.927v0.19zM19.194 11.296h-0.45v0.305h0.528v0.188h-0.762v-1.137h0.761v0.19h-0.527v0.271h0.45v0.184zM19.83 11.372h-0.187v0.416h-0.234v-1.137h0.423c0.134 0 0.238 0.030 0.311 0.090s0.109 0.145 0.109 0.254c0 0.078-0.017 0.142-0.051 0.195s-0.084 0.093-0.152 0.123l0.246 0.465v0.011h-0.252l-0.213-0.416zM19.644 11.182h0.189c0.059 0 0.104-0.015 0.137-0.045s0.048-0.072 0.048-0.124c0-0.054-0.015-0.096-0.046-0.127s-0.077-0.046-0.14-0.046h-0.188v0.341zM21.021 11.49c0-0.044-0.016-0.078-0.047-0.102s-0.087-0.049-0.169-0.075c-0.081-0.027-0.146-0.053-0.193-0.078-0.129-0.070-0.194-0.164-0.194-0.282 0-0.061 0.017-0.116 0.052-0.164s0.085-0.086 0.149-0.113c0.065-0.027 0.138-0.041 0.219-0.041s0.154 0.015 0.217 0.045c0.064 0.029 0.113 0.071 0.148 0.124s0.053 0.115 0.053 0.183h-0.234c0-0.052-0.016-0.092-0.049-0.121s-0.079-0.044-0.138-0.044c-0.057 0-0.102 0.012-0.134 0.037s-0.048 0.056-0.048 0.095c0 0.037 0.018 0.068 0.055 0.093s0.092 0.048 0.165 0.070c0.133 0.040 0.23 0.090 0.291 0.149s0.091 0.133 0.091 0.222c0 0.098-0.037 0.176-0.112 0.232s-0.175 0.084-0.301 0.084c-0.088 0-0.167-0.016-0.239-0.048s-0.127-0.076-0.165-0.132c-0.038-0.056-0.056-0.12-0.056-0.194h0.235c0 0.126 0.075 0.188 0.225 0.188 0.056 0 0.099-0.011 0.13-0.034s0.047-0.055 0.047-0.095z"></path>
</svg>
