<!-- Generated by IcoMoon.io -->
<svg version="1.1" xmlns="http://www.w3.org/2000/svg" width="28" height="16" viewBox="0 0 28 16">
<title>Logo3</title>
<rect fill="#fff" x="0" y="0" width="28" height="16"></rect>
<path fill="#afb1b8" d="M9.708 13.094c0.004 0 0.008 0.001 0.012 0.002s0.007 0.004 0.010 0.006l0.058 0.056c-0.045 0.045-0.101 0.081-0.164 0.106-0.073 0.027-0.152 0.040-0.232 0.038-0.075 0.001-0.149-0.011-0.218-0.035-0.062-0.023-0.118-0.057-0.164-0.1-0.047-0.045-0.083-0.097-0.106-0.154-0.025-0.064-0.038-0.13-0.037-0.198-0.001-0.068 0.013-0.135 0.040-0.198 0.025-0.057 0.064-0.11 0.113-0.154s0.109-0.078 0.175-0.1c0.072-0.024 0.148-0.036 0.225-0.035 0.071-0.002 0.142 0.009 0.209 0.032 0.058 0.022 0.11 0.052 0.156 0.089l-0.049 0.059c-0.003 0.004-0.008 0.008-0.012 0.011s-0.013 0.005-0.020 0.004c-0.008-0-0.015-0.003-0.021-0.006l-0.026-0.016-0.036-0.020c-0.016-0.008-0.032-0.014-0.049-0.020-0.022-0.007-0.044-0.012-0.066-0.016-0.029-0.005-0.058-0.007-0.087-0.006-0.055-0.001-0.11 0.008-0.161 0.027-0.048 0.017-0.091 0.042-0.127 0.075-0.036 0.034-0.064 0.075-0.082 0.119-0.020 0.050-0.031 0.103-0.030 0.157-0.001 0.054 0.009 0.108 0.030 0.159 0.018 0.044 0.045 0.084 0.081 0.118 0.033 0.032 0.075 0.057 0.121 0.073 0.047 0.017 0.098 0.026 0.15 0.025 0.030 0 0.059-0.001 0.089-0.005 0.048-0.005 0.094-0.020 0.134-0.042 0.020-0.012 0.040-0.025 0.057-0.039 0.007-0.006 0.017-0.010 0.028-0.010v0z"></path>
<path fill="#afb1b8" d="M11.388 12.814c0.001 0.067-0.012 0.134-0.039 0.196-0.024 0.057-0.061 0.109-0.11 0.153s-0.107 0.078-0.172 0.1c-0.142 0.047-0.3 0.047-0.442 0-0.064-0.023-0.123-0.057-0.171-0.1s-0.086-0.097-0.111-0.154c-0.052-0.127-0.052-0.266 0-0.394 0.025-0.057 0.062-0.11 0.111-0.155 0.049-0.042 0.107-0.075 0.171-0.097 0.142-0.048 0.3-0.048 0.442 0 0.065 0.023 0.123 0.057 0.172 0.1s0.085 0.096 0.11 0.152c0.027 0.063 0.040 0.13 0.039 0.198zM11.235 12.814c0.001-0.054-0.008-0.107-0.028-0.158-0.016-0.044-0.043-0.084-0.078-0.118-0.034-0.032-0.076-0.058-0.123-0.075-0.103-0.035-0.218-0.035-0.321 0-0.047 0.017-0.089 0.042-0.123 0.075-0.036 0.034-0.062 0.074-0.079 0.118-0.037 0.103-0.037 0.213 0 0.316 0.016 0.044 0.043 0.084 0.079 0.118 0.034 0.032 0.076 0.058 0.123 0.074 0.104 0.034 0.218 0.034 0.321 0 0.047-0.016 0.089-0.042 0.123-0.074 0.035-0.034 0.061-0.075 0.078-0.118 0.020-0.051 0.029-0.104 0.028-0.158v0z"></path>
<path fill="#afb1b8" d="M12.534 12.98l0.015 0.035c0.006-0.013 0.011-0.024 0.017-0.035s0.012-0.023 0.019-0.035l0.372-0.587c0.007-0.010 0.014-0.016 0.021-0.018 0.010-0.003 0.020-0.004 0.031-0.003h0.11v0.954h-0.13v-0.702c0-0.009 0-0.019 0-0.030s-0.001-0.022 0-0.033l-0.374 0.595c-0.005 0.009-0.012 0.016-0.022 0.022s-0.021 0.008-0.032 0.008h-0.021c-0.011 0-0.022-0.003-0.032-0.008s-0.017-0.013-0.022-0.022l-0.385-0.599c0 0.011 0 0.023 0 0.034s0 0.021 0 0.030v0.702h-0.126v-0.953h0.11c0.010-0.001 0.021 0.001 0.031 0.003 0.009 0.004 0.016 0.010 0.020 0.018l0.38 0.587c0.007 0.011 0.014 0.022 0.019 0.034v0z"></path>
<path fill="#afb1b8" d="M13.932 12.932v0.358h-0.145v-0.953h0.324c0.061-0.001 0.122 0.006 0.181 0.021 0.047 0.012 0.091 0.032 0.128 0.059 0.032 0.026 0.057 0.058 0.073 0.094 0.017 0.039 0.026 0.080 0.025 0.122 0.001 0.042-0.008 0.083-0.027 0.122-0.018 0.037-0.044 0.069-0.079 0.095-0.037 0.029-0.081 0.050-0.129 0.063-0.057 0.016-0.116 0.023-0.175 0.022l-0.176-0.002zM13.932 12.83h0.176c0.038 0 0.076-0.004 0.113-0.014 0.030-0.009 0.058-0.023 0.081-0.041 0.022-0.018 0.039-0.039 0.049-0.063 0.012-0.025 0.018-0.053 0.017-0.080 0.002-0.027-0.003-0.053-0.015-0.078s-0.029-0.047-0.051-0.065c-0.056-0.038-0.125-0.056-0.196-0.051h-0.176v0.393z"></path>
<path fill="#afb1b8" d="M15.886 13.291h-0.115c-0.012 0-0.023-0.003-0.032-0.009s-0.015-0.014-0.019-0.022l-0.099-0.231h-0.497l-0.103 0.231c-0.004 0.008-0.010 0.016-0.018 0.021-0.009 0.006-0.021 0.010-0.033 0.009h-0.115l0.436-0.955h0.151l0.442 0.955zM15.166 12.937h0.41l-0.173-0.389c-0.013-0.029-0.024-0.059-0.033-0.090l-0.017 0.050c-0.005 0.015-0.011 0.029-0.016 0.040l-0.172 0.388z"></path>
<path fill="#afb1b8" d="M16.514 12.341c0.009 0.004 0.016 0.010 0.022 0.017l0.636 0.72c0-0.011 0-0.023 0-0.034s0-0.021 0-0.032v-0.676h0.13v0.955h-0.073c-0.010 0-0.021-0.002-0.030-0.006s-0.017-0.011-0.023-0.018l-0.635-0.719c0.001 0.011 0.001 0.022 0 0.033s0 0.020 0 0.029v0.68h-0.13v-0.955h0.077c0.009-0 0.018 0.001 0.026 0.004v0z"></path>
<path fill="#afb1b8" d="M18.374 12.912v0.379h-0.145v-0.379l-0.402-0.575h0.13c0.011-0.001 0.022 0.002 0.031 0.008 0.008 0.006 0.015 0.013 0.020 0.021l0.252 0.371c0.010 0.016 0.019 0.030 0.026 0.044s0.013 0.027 0.018 0.040l0.019-0.041c0.007-0.015 0.015-0.030 0.025-0.044l0.248-0.373c0.005-0.007 0.012-0.014 0.019-0.020 0.009-0.007 0.020-0.010 0.031-0.009h0.132l-0.403 0.577z"></path>
<path fill="#afb1b8" d="M12.462 10.735c0.063 0.007 0.127 0.013 0.192 0.018 0.981-0.381 1.811-1.005 2.386-1.794s0.87-1.707 0.847-2.641l-1.081-0.939c0.22 0.994 0.117 2.021-0.297 2.967s-1.123 1.773-2.047 2.389v0z"></path>
<path fill="#afb1b8" d="M12.076 10.691l0.029 0.005c0.988-0.614 1.741-1.471 2.162-2.461s0.491-2.066 0.2-3.091l-1.54-1.338c0.623 1.1 0.874 2.331 0.723 3.549s-0.696 2.375-1.574 3.335v0z"></path>
<path fill="#afb1b8" d="M17.298 7.42c-0.262 1.026-0.897 1.951-1.812 2.638-0.267 0.202-0.555 0.382-0.861 0.537 0.745-0.19 1.43-0.527 2.001-0.983s1.015-1.021 1.296-1.65l-0.625-0.542z"></path>
<path fill="#afb1b8" d="M17.053 7.269l-0.889-0.773c-0.017 0.881-0.305 1.742-0.835 2.493s-1.281 1.366-2.176 1.779h0.004c0.2-0 0.399-0.010 0.597-0.031 0.837-0.297 1.576-0.769 2.151-1.374s0.97-1.325 1.147-2.095v0z"></path>
<path fill="#afb1b8" d="M12.204 3.243l-1.061-0.923c-0.948 0.318-1.764 0.878-2.34 1.606s-0.886 1.59-0.889 2.473v0c0.004 0.976 0.382 1.923 1.074 2.691s1.661 1.314 2.751 1.55c0.973-1.030 1.543-2.302 1.626-3.633s-0.323-2.649-1.162-3.765v0z"></path>
<path fill="#afb1b8" d="M19.504 7.127c-0.004-1.158-0.535-2.268-1.477-3.086s-2.22-1.28-3.552-1.284v0c-0.616-0.001-1.226 0.098-1.801 0.291l6.495 5.643c0.222-0.499 0.336-1.029 0.336-1.564v0z"></path>
</svg>
