<!-- Generated by IcoMoon.io -->
<svg version="1.1" xmlns="http://www.w3.org/2000/svg" width="28" height="16" viewBox="0 0 28 16">
<title>Logo2</title>
<rect fill="#fff" x="0" y="0" width="28" height="16"></rect>
<path fill="#afb1b8" d="M13.145 1.744h-0.036c-0.055-0.003-0.11-0.005-0.165-0.006v0h-0.119c-0.104 0-0.21 0.003-0.316 0.008-0.008-0.001-0.016-0.001-0.024 0-0.956 0.054-1.892 0.293-2.758 0.704l-0.113 0.055v5.808l0.265-0.090c0.233-0.080 0.481-0.152 0.738-0.219 0.694-0.178 1.407-0.273 2.123-0.282v0.763c-0.095 0.001-0.187 0.003-0.279 0.008h-0.022c-0.551 0.030-1.098 0.114-1.634 0.251-0.678 0.17-1.332 0.425-1.946 0.758v-7.448c0.638-0.372 1.326-0.652 2.042-0.83 0.629-0.162 1.275-0.246 1.924-0.248h0.112c0.134 0.003 0.265 0.009 0.388 0.019 0.323 0.023 0.644 0.074 0.959 0.153v0.751c-0.306-0.071-0.616-0.118-0.929-0.14-0.006-0.001-0.013-0.001-0.019-0.002-0.065-0.006-0.13-0.011-0.19-0.011zM14.466 2.511c0.167 0.013 0.339 0.019 0.514 0.019 0.682-0.002 1.362-0.090 2.023-0.259 0.677-0.17 1.331-0.425 1.945-0.759v7.316c-0.639 0.372-1.326 0.652-2.042 0.83-0.629 0.162-1.275 0.245-1.924 0.247-0.492 0.004-0.982-0.054-1.46-0.172v-7.363c0.113 0.026 0.229 0.050 0.347 0.070 0.194 0.033 0.398 0.057 0.597 0.071zM18.189 2.568l-0.265 0.089c-0.244 0.082-0.49 0.155-0.738 0.221-0.721 0.185-1.461 0.28-2.205 0.283-0.173 0-0.332-0.005-0.486-0.015l-0.212-0.014v5.974l0.182 0.016c0.169 0.015 0.342 0.022 0.518 0.022 0.586-0.002 1.169-0.078 1.736-0.225 0.467-0.117 0.922-0.28 1.357-0.488l0.113-0.055v-5.809z"></path>
<path fill="#afb1b8" d="M9.374 12.046c-0.038-0.040-0.084-0.071-0.135-0.091s-0.105-0.030-0.16-0.028c-0.058-0.001-0.116 0.010-0.171 0.032-0.050 0.020-0.095 0.050-0.133 0.087s-0.067 0.083-0.086 0.133c-0.021 0.052-0.031 0.108-0.031 0.165v0.995c-0.002 0.070 0.011 0.14 0.039 0.204 0.023 0.051 0.057 0.096 0.1 0.133 0.040 0.034 0.086 0.058 0.137 0.071 0.048 0.014 0.098 0.021 0.149 0.021 0.055 0.001 0.11-0.011 0.161-0.035 0.050-0.022 0.095-0.053 0.133-0.092s0.066-0.084 0.087-0.133c0.021-0.050 0.032-0.104 0.032-0.159v-0.111h-0.26v0.089c0.001 0.030-0.004 0.060-0.015 0.089-0.008 0.021-0.021 0.040-0.038 0.056-0.016 0.013-0.035 0.023-0.054 0.029-0.018 0.006-0.036 0.009-0.054 0.009-0.023 0.003-0.047-0.001-0.068-0.010s-0.040-0.024-0.054-0.043c-0.025-0.040-0.037-0.086-0.034-0.133v-0.928c-0.002-0.051 0.009-0.103 0.032-0.149 0.014-0.021 0.033-0.038 0.055-0.048s0.048-0.015 0.072-0.012c0.022-0.001 0.045 0.004 0.065 0.014s0.038 0.024 0.051 0.042c0.029 0.038 0.044 0.085 0.043 0.133v0.086h0.257v-0.101c0.001-0.060-0.010-0.119-0.032-0.174-0.019-0.052-0.049-0.1-0.087-0.14v0z"></path>
<path fill="#afb1b8" d="M10.919 12.035c-0.083-0.070-0.188-0.109-0.296-0.109-0.053 0-0.106 0.010-0.155 0.028s-0.097 0.046-0.137 0.081c-0.043 0.039-0.077 0.086-0.101 0.139-0.026 0.061-0.039 0.127-0.038 0.193v0.954c-0.002 0.067 0.011 0.134 0.038 0.195 0.024 0.051 0.058 0.097 0.101 0.133 0.040 0.037 0.086 0.066 0.137 0.084 0.050 0.018 0.102 0.028 0.155 0.028s0.106-0.010 0.155-0.028c0.052-0.019 0.099-0.047 0.141-0.084s0.075-0.083 0.098-0.133c0.027-0.062 0.040-0.128 0.038-0.195v-0.954c0.001-0.066-0.012-0.132-0.038-0.193-0.023-0.053-0.057-0.1-0.098-0.139v0zM10.798 13.321c0.002 0.025-0.001 0.051-0.010 0.075s-0.023 0.045-0.041 0.063c-0.034 0.029-0.078 0.045-0.122 0.045s-0.088-0.016-0.122-0.045c-0.018-0.018-0.033-0.039-0.041-0.063s-0.012-0.050-0.010-0.075v-0.954c-0.002-0.025 0.001-0.051 0.010-0.075s0.023-0.045 0.041-0.063c0.034-0.029 0.078-0.045 0.122-0.045s0.088 0.016 0.122 0.045c0.018 0.018 0.033 0.039 0.041 0.063s0.012 0.050 0.010 0.075v0.954z"></path>
<path fill="#afb1b8" d="M12.949 13.748v-1.807h-0.25l-0.328 0.956h-0.005l-0.331-0.956h-0.248v1.807h0.258v-1.099h0.005l0.253 0.777h0.129l0.255-0.777h0.005v1.099h0.258z"></path>
<path fill="#afb1b8" d="M14.415 12.067c-0.040-0.045-0.090-0.079-0.146-0.099-0.060-0.020-0.124-0.029-0.187-0.028h-0.383v1.807h0.257v-0.706h0.133c0.080 0.004 0.16-0.013 0.232-0.049 0.059-0.033 0.107-0.080 0.141-0.138 0.030-0.048 0.050-0.102 0.059-0.157 0.010-0.068 0.015-0.137 0.014-0.205 0.003-0.087-0.006-0.174-0.025-0.258-0.017-0.063-0.050-0.12-0.095-0.166v0zM14.283 12.618c-0.001 0.033-0.009 0.065-0.024 0.094-0.015 0.028-0.038 0.050-0.066 0.063-0.038 0.017-0.080 0.025-0.121 0.023h-0.117v-0.614h0.133c0.040-0.002 0.080 0.006 0.116 0.023 0.027 0.015 0.048 0.039 0.060 0.067 0.014 0.032 0.022 0.066 0.023 0.101 0 0.038 0 0.078 0 0.12s0.003 0.085 0 0.124h-0.003z"></path>
<path fill="#afb1b8" d="M15.635 11.941h-0.211l-0.398 1.807h0.257l0.076-0.388h0.351l0.076 0.388h0.257l-0.408-1.807zM15.397 13.113l0.127-0.655h0.005l0.126 0.655h-0.257z"></path>
<path fill="#afb1b8" d="M17.298 13.029h-0.005l-0.389-1.089h-0.247v1.807h0.257v-1.087h0.005l0.393 1.087h0.242v-1.807h-0.257v1.089z"></path>
<path fill="#afb1b8" d="M18.872 11.941l-0.207 0.718h-0.005l-0.207-0.718h-0.273l0.354 1.043v0.764h0.257v-0.764l0.354-1.043h-0.273z"></path>
<path fill="#afb1b8" d="M8.656 14.258h0.124v0.348h0.084v-0.348h0.123v-0.071h-0.332v0.071z"></path>
<path fill="#afb1b8" d="M9.699 14.186l-0.163 0.42h0.090l0.035-0.095h0.167l0.036 0.095h0.092l-0.167-0.42h-0.090zM9.686 14.44l0.057-0.155 0.057 0.155h-0.114z"></path>
<path fill="#afb1b8" d="M10.73 14.451h0.097v0.054c-0.028 0.023-0.063 0.035-0.1 0.035-0.017 0.001-0.034-0.002-0.049-0.009s-0.029-0.018-0.040-0.031c-0.022-0.032-0.033-0.070-0.031-0.109 0-0.093 0.040-0.14 0.121-0.14 0.021-0.002 0.042 0.003 0.060 0.016s0.030 0.030 0.035 0.051l0.083-0.016c-0.018-0.082-0.077-0.123-0.178-0.123-0.054-0.001-0.106 0.018-0.147 0.054-0.021 0.021-0.038 0.046-0.048 0.074s-0.015 0.058-0.012 0.087c-0.002 0.057 0.017 0.114 0.054 0.157 0.021 0.021 0.045 0.038 0.073 0.048s0.057 0.015 0.086 0.013c0.066 0.002 0.129-0.022 0.178-0.067v-0.165h-0.182v0.071z"></path>
<path fill="#afb1b8" d="M11.783 14.186h-0.085v0.42h0.294v-0.071h-0.209v-0.348z"></path>
<path fill="#afb1b8" d="M12.673 14.186h-0.085v0.42h0.085v-0.42z"></path>
<path fill="#afb1b8" d="M13.544 14.467l-0.172-0.28h-0.082v0.42h0.079v-0.274l0.169 0.274h0.084v-0.42h-0.078v0.28z"></path>
<path fill="#afb1b8" d="M14.331 14.421h0.209v-0.071h-0.209v-0.092h0.225v-0.071h-0.31v0.42h0.319v-0.071h-0.234v-0.113z"></path>
<path fill="#afb1b8" d="M16.239 14.352h-0.165v-0.165h-0.084v0.42h0.084v-0.183h0.165v0.183h0.084v-0.42h-0.084v0.165z"></path>
<path fill="#afb1b8" d="M17.031 14.421h0.21v-0.071h-0.21v-0.092h0.226v-0.071h-0.31v0.42h0.318v-0.071h-0.234v-0.113z"></path>
<path fill="#afb1b8" d="M18.104 14.421c0.073-0.011 0.11-0.050 0.11-0.117 0.002-0.018-0.001-0.036-0.008-0.052s-0.019-0.031-0.033-0.041c-0.038-0.019-0.080-0.028-0.123-0.025h-0.178v0.42h0.084v-0.175h0.017c0.018-0.001 0.036 0.002 0.052 0.009 0.012 0.008 0.023 0.018 0.030 0.031l0.092 0.133h0.101l-0.051-0.082c-0.023-0.040-0.054-0.075-0.093-0.101v0zM18.020 14.363h-0.062v-0.105h0.066c0.029-0.002 0.058 0.001 0.086 0.010 0.006 0.005 0.011 0.012 0.014 0.020s0.005 0.016 0.004 0.024c-0 0.008-0.003 0.016-0.006 0.023s-0.009 0.013-0.016 0.018c-0.028 0.008-0.057 0.012-0.086 0.010v0z"></path>
<path fill="#afb1b8" d="M18.914 14.421h0.209v-0.071h-0.209v-0.092h0.226v-0.071h-0.311v0.42h0.318v-0.071h-0.234v-0.113z"></path>
</svg>
