<!-- Generated by IcoMoon.io -->
<svg version="1.1" xmlns="http://www.w3.org/2000/svg" width="28" height="16" viewBox="0 0 28 16">
<title>Logo1</title>
<rect fill="#fff" x="0" y="0" width="28" height="16"></rect>
<path fill="#afb1b8" d="M9.967 2.023l1.838 1.74-3.412-0.002v8.443h8.918v-3.228l1.836 1.738v-8.691h-9.18zM17.231 8.772l-5.212-4.934h5.212v4.934zM15.613 10.969h-5.808v-5.678h0.411v5.294h5.397v0.384zM11.176 13.328l-0.215 0.442-0.215-0.442h-0.18l0.313 0.589v0.343h0.163v-0.343l0.313-0.589h-0.179zM11.446 14.26l0.076-0.217h0.361l0.076 0.217h0.169l-0.353-0.932h-0.145l-0.352 0.932h0.168zM11.702 13.526l0.135 0.387h-0.27l0.135-0.387zM12.556 13.89c-0.023 0.036-0.035 0.075-0.035 0.118 0 0.079 0.028 0.142 0.083 0.191s0.129 0.073 0.222 0.073 0.172-0.025 0.238-0.075l0.053 0.062h0.181l-0.137-0.162c0.054-0.073 0.081-0.168 0.081-0.282h-0.135c0 0.063-0.013 0.12-0.039 0.171l-0.18-0.213 0.063-0.046c0.045-0.032 0.077-0.065 0.097-0.097s0.029-0.069 0.029-0.108c0-0.059-0.022-0.108-0.065-0.148s-0.099-0.060-0.166-0.060c-0.075 0-0.135 0.021-0.179 0.064s-0.067 0.1-0.067 0.173c0 0.030 0.007 0.061 0.021 0.093s0.040 0.071 0.076 0.117c-0.069 0.050-0.115 0.092-0.139 0.129zM12.977 14.096c-0.046 0.035-0.095 0.053-0.147 0.053-0.047 0-0.084-0.013-0.111-0.040s-0.042-0.062-0.042-0.105c0-0.050 0.026-0.094 0.077-0.133l0.020-0.014 0.204 0.24zM12.81 13.683c-0.044-0.054-0.066-0.099-0.066-0.135 0-0.031 0.009-0.057 0.027-0.077s0.042-0.031 0.072-0.031c0.028 0 0.051 0.009 0.070 0.026s0.028 0.038 0.028 0.062c0 0.037-0.013 0.067-0.040 0.090l-0.020 0.016-0.071 0.049zM14.327 14.19c0.064-0.056 0.101-0.134 0.11-0.233h-0.161c-0.009 0.067-0.029 0.114-0.061 0.143s-0.080 0.043-0.143 0.043c-0.070 0-0.123-0.026-0.159-0.079s-0.054-0.13-0.054-0.231v-0.083c0.001-0.099 0.020-0.175 0.058-0.226s0.092-0.077 0.163-0.077c0.061 0 0.107 0.015 0.138 0.045s0.051 0.078 0.059 0.145h0.161c-0.010-0.102-0.047-0.181-0.11-0.237s-0.146-0.084-0.248-0.084c-0.076 0-0.144 0.018-0.202 0.054s-0.103 0.088-0.134 0.155c-0.031 0.067-0.047 0.145-0.047 0.232v0.087c0.001 0.086 0.017 0.161 0.048 0.226s0.074 0.115 0.131 0.15c0.057 0.035 0.122 0.053 0.197 0.053 0.106 0 0.191-0.028 0.255-0.083zM15.28 14.059c0.032-0.069 0.047-0.149 0.047-0.241v-0.052c-0-0.091-0.017-0.171-0.049-0.239s-0.077-0.121-0.136-0.158c-0.058-0.037-0.126-0.055-0.202-0.055s-0.143 0.019-0.202 0.056c-0.058 0.037-0.104 0.090-0.136 0.159s-0.048 0.15-0.048 0.241v0.053c0 0.089 0.017 0.168 0.049 0.236s0.078 0.121 0.137 0.158c0.059 0.037 0.127 0.055 0.202 0.055s0.144-0.018 0.202-0.055c0.059-0.037 0.104-0.090 0.136-0.159zM15.106 13.532c0.039 0.055 0.059 0.134 0.059 0.238v0.049c0 0.105-0.019 0.185-0.058 0.239s-0.093 0.082-0.165 0.082c-0.071 0-0.126-0.028-0.166-0.084s-0.060-0.135-0.060-0.238v-0.054c0.001-0.1 0.021-0.178 0.060-0.232s0.095-0.083 0.165-0.083c0.072 0 0.127 0.028 0.166 0.083z"></path>
</svg>
