<!-- Generated by IcoMoon.io -->
<svg version="1.1" xmlns="http://www.w3.org/2000/svg" width="16" height="16" viewBox="0 0 16 16">
<title>astronaut</title>
<rect fill="#fff" x="0" y="0" width="16" height="16"></rect>
<path fill="#2196f3" d="M15.987 2.262c-0.031-0.096-0.115-0.167-0.215-0.181l-0.955-0.139-0.427-0.866c-0.090-0.182-0.389-0.182-0.478 0l-0.427 0.866-0.955 0.139c-0.101 0.015-0.184 0.085-0.215 0.181s-0.005 0.203 0.067 0.273l0.691 0.674-0.163 0.951c-0.017 0.1 0.024 0.201 0.106 0.261 0.083 0.060 0.191 0.068 0.281 0.020l0.854-0.449 0.854 0.449c0.039 0.021 0.082 0.031 0.124 0.031 0.055 0 0.11-0.017 0.157-0.051 0.082-0.060 0.123-0.161 0.106-0.261l-0.163-0.952 0.691-0.674c0.072-0.071 0.099-0.177 0.067-0.273zM14.756 2.926c-0.063 0.061-0.091 0.15-0.077 0.236l0.095 0.557-0.5-0.263c-0.039-0.021-0.082-0.031-0.124-0.031s-0.085 0.010-0.124 0.031l-0.5 0.263 0.095-0.557c0.015-0.086-0.014-0.175-0.077-0.236l-0.405-0.395 0.559-0.081c0.087-0.013 0.162-0.067 0.201-0.146l0.25-0.507 0.25 0.507c0.039 0.079 0.114 0.133 0.201 0.146l0.559 0.081-0.405 0.395z"></path>
<path fill="#2196f3" d="M13.067 10.261h-0.533v0.533h0.533v-0.533z"></path>
<path fill="#2196f3" d="M13.067 11.328h-0.533v0.533h0.533v-0.533z"></path>
<path fill="#2196f3" d="M13.6 10.794h-0.533v0.533h0.533v-0.533z"></path>
<path fill="#2196f3" d="M12.533 10.794h-0.533v0.533h0.533v-0.533z"></path>
<path fill="#2196f3" d="M11.2 13.194h-0.533v0.533h0.533v-0.533z"></path>
<path fill="#2196f3" d="M11.2 14.261h-0.533v0.533h0.533v-0.533z"></path>
<path fill="#2196f3" d="M11.733 13.728h-0.533v0.533h0.533v-0.533z"></path>
<path fill="#2196f3" d="M10.667 13.728h-0.533v0.533h0.533v-0.533z"></path>
<path fill="#2196f3" d="M8 12.128h-0.533v0.533h0.533v-0.533z"></path>
<path fill="#2196f3" d="M8 13.194h-0.533v0.533h0.533v-0.533z"></path>
<path fill="#2196f3" d="M8.533 12.661h-0.533v0.533h0.533v-0.533z"></path>
<path fill="#2196f3" d="M7.467 12.661h-0.533v0.533h0.533v-0.533z"></path>
<path fill="#2196f3" d="M2.933 3.061h-0.533v0.533h0.533v-0.533z"></path>
<path fill="#2196f3" d="M2.933 4.128h-0.533v0.533h0.533v-0.533z"></path>
<path fill="#2196f3" d="M3.467 3.594h-0.533v0.533h0.533v-0.533z"></path>
<path fill="#2196f3" d="M2.4 3.594h-0.533v0.533h0.533v-0.533z"></path>
<path fill="#212121" d="M12.357 7.080c-0.144-0.194-0.355-0.319-0.594-0.352-0.241-0.034-0.478 0.029-0.67 0.176l-0.626 0.48-0.949 0.709-0.679-0.27c1.211-0.543 2.057-1.754 2.057-3.16 0-1.912-1.561-3.467-3.481-3.467s-3.481 1.555-3.481 3.467c0 0.693 0.207 1.337 0.56 1.879l-1.382-0.012c-0.001 0-0.002 0-0.002 0-0.004 0-0.008 0.002-0.012 0.002-0.026 0.001-0.052 0.006-0.078 0.015-0.006 0.002-0.013 0.004-0.019 0.007-0.003 0.001-0.006 0.002-0.010 0.003l-1.617 0.798c-0 0-0.001 0-0.001 0l-0.947 0.455c-0.010 0.005-0.021 0.011-0.031 0.018-0.377 0.251-0.506 0.745-0.299 1.148 0.11 0.214 0.298 0.372 0.528 0.445 0.089 0.028 0.179 0.041 0.27 0.041 0.145 0 0.288-0.035 0.42-0.106l0.694-0.369 1.132-0.585 0.678-0.004-2.721 2.708c-0 0-0.001 0-0.001 0.001l-0.669 0.667c-0.158 0.157-0.245 0.366-0.245 0.589s0.087 0.432 0.245 0.589c0.162 0.162 0.376 0.243 0.59 0.243s0.427-0.081 0.59-0.243l0.657-0.654 0.87-0.65 0.45 0.449-0.881 0.877c-0 0-0.001 0-0.001 0.001l-0.669 0.667c-0.158 0.157-0.245 0.366-0.245 0.589s0.087 0.432 0.245 0.589c0.162 0.162 0.376 0.243 0.59 0.243s0.427-0.081 0.59-0.243l1.741-1.733c0-0 0-0.001 0.001-0.001l0.505-0.5-0.002-0.002c0.003-0.003 0.008-0.004 0.011-0.008l2.583-2.829 1.736 0.247c0.013 0.002 0.025 0.003 0.038 0.003 0.032 0 0.063-0.008 0.094-0.019 0.009-0.003 0.017-0.007 0.025-0.012 0.010-0.005 0.020-0.007 0.029-0.014l1.607-1.067c0.006-0.004 0.009-0.010 0.015-0.015s0.014-0.007 0.020-0.013l0.636-0.595c0.331-0.31 0.376-0.818 0.106-1.181zM1.065 8.885c-0.087 0.046-0.185 0.056-0.279 0.026s-0.169-0.093-0.213-0.179c-0.081-0.157-0.034-0.348 0.107-0.451l0.657-0.316 0.225 0.656-0.496 0.264zM2.814 7.971l-0.774 0.4-0.219-0.642 1.013-0.5-0.020 0.742zM10.363 4.661c0 0.459-0.11 0.892-0.299 1.28l-2.091-0.95c-0.022-0.287-0.171-0.538-0.394-0.694l0.732-2.43c1.189 0.378 2.052 1.487 2.052 2.794zM4.469 4.661c0-1.617 1.322-2.933 2.947-2.933 0.126 0 0.25 0.011 0.373 0.026l-0.716 2.377c-0.010-0-0.019-0.003-0.029-0.003-0.516 0-0.936 0.419-0.936 0.933s0.42 0.933 0.936 0.933c0.347 0 0.647-0.192 0.809-0.472l1.931 0.877c-0.537 0.723-1.397 1.195-2.368 1.195-1.625 0-2.947-1.316-2.947-2.933zM7.447 5.061c0 0.221-0.181 0.4-0.403 0.4s-0.403-0.179-0.403-0.4c0-0.221 0.181-0.4 0.403-0.4s0.403 0.179 0.403 0.4zM1.232 12.573c-0.118 0.117-0.309 0.117-0.427 0-0.057-0.057-0.088-0.132-0.088-0.211s0.031-0.154 0.088-0.211l0.481-0.479 0.426 0.424-0.479 0.477zM2.839 14.44c-0.118 0.117-0.31 0.117-0.427 0-0.057-0.057-0.088-0.132-0.088-0.211s0.031-0.154 0.088-0.211l0.481-0.479 0.426 0.424-0.48 0.478zM4.58 12.705c-0 0-0.001 0-0.001 0.001l-0.882 0.88-0.426-0.424 0.882-0.878c0 0 0 0 0-0s0.001-0 0.001-0.001c0.020-0.020 0.033-0.044 0.045-0.068 0.003-0.007 0.010-0.013 0.013-0.020 0.008-0.021 0.010-0.043 0.013-0.064 0.002-0.012 0.007-0.024 0.007-0.036 0-0.018-0.006-0.035-0.010-0.053-0.003-0.016-0.003-0.032-0.009-0.048-0.010-0.025-0.027-0.047-0.046-0.069-0.005-0.006-0.007-0.013-0.013-0.019 0 0 0 0-0 0s-0-0.001-0.001-0.001l-0.804-0.8c-0.009-0.009-0.019-0.012-0.029-0.019-0.014-0.011-0.028-0.021-0.043-0.029s-0.031-0.012-0.047-0.016c-0.017-0.005-0.034-0.009-0.051-0.010-0.016-0.001-0.031 0.001-0.048 0.002-0.018 0.002-0.035 0.005-0.052 0.010s-0.032 0.014-0.047 0.022c-0.010 0.006-0.021 0.007-0.030 0.014l-0.887 0.662-0.45-0.449 1.2-1.193 2.18 2.144-0.464 0.459zM7.99 9.197c-0.008-0.001-0.015 0.002-0.023 0.001-0.019-0.001-0.038 0-0.058 0.003-0.015 0.003-0.030 0.006-0.044 0.011-0.017 0.006-0.033 0.014-0.048 0.023s-0.029 0.019-0.042 0.031c-0.006 0.006-0.014 0.008-0.020 0.015l-2.349 2.573-2.164-2.128 1.417-1.409c0.104-0.104 0.105-0.273 0.001-0.377-0.053-0.053-0.122-0.078-0.191-0.078v-0l-1.109 0.007 0.014-0.804 1.552 0.013c0.633 0.647 1.515 1.050 2.491 1.050 0.219 0 0.432-0.023 0.64-0.061 0.020 0.016 0.040 0.032 0.065 0.042l1.205 0.48 0.076 0.379 0.089 0.443-1.501-0.214zM10.010 9.286l-0.157-0.779 0.723-0.54 0.473 0.628-1.040 0.691zM11.887 7.871l-0.419 0.393-0.466-0.618 0.416-0.319c0.078-0.060 0.175-0.084 0.271-0.071 0.097 0.014 0.182 0.064 0.24 0.142 0.108 0.146 0.090 0.349-0.043 0.474z"></path>
<path fill="#212121" d="M6.801 9.272l-1.071-1.067c-0.104-0.104-0.272-0.104-0.376 0l-1.071 1.067c-0.050 0.050-0.078 0.118-0.078 0.189s0.028 0.139 0.078 0.189l1.071 1.067c0.052 0.052 0.12 0.078 0.188 0.078s0.136-0.026 0.188-0.078l1.071-1.067c0.050-0.050 0.079-0.118 0.079-0.189s-0.028-0.139-0.079-0.189zM5.542 10.152l-0.693-0.69 0.693-0.69 0.694 0.69-0.694 0.69z"></path>
<path fill="#212121" d="M8.582 2.535l-0.129 0.518c0.035 0.009 0.869 0.226 0.869 1.074h0.533c-0-1.009-0.833-1.483-1.273-1.592z"></path>
<path fill="#212121" d="M9.855 4.661h-0.533v0.533h0.533v-0.533z"></path>
</svg>
