<!-- Generated by IcoMoon.io -->
<svg version="1.1" xmlns="http://www.w3.org/2000/svg" width="21" height="16" viewBox="0 0 21 16">
<title>envelope</title>
<rect fill="#fff" x="0" y="0" width="21" height="16"></rect>
<path fill="#757575" d="M19.333 0h-17.333c-1.103 0-2 0.897-2 2v12c0 1.103 0.897 2 2 2h17.333c1.103 0 2-0.897 2-2v-12c0-1.103-0.897-2-2-2zM19.333 1.333c0.091 0 0.177 0.019 0.255 0.052l-8.922 7.733-8.922-7.733c0.079-0.033 0.165-0.052 0.256-0.052h17.333zM19.333 14.667h-17.333c-0.368 0-0.667-0.299-0.667-0.667v-11.206l8.896 7.71c0.126 0.109 0.281 0.163 0.437 0.163s0.311-0.054 0.437-0.163l8.896-7.71v11.206c0 0.368-0.299 0.667-0.667 0.667z"></path>
</svg>
