<!-- Generated by IcoMoon.io -->
<svg version="1.1" xmlns="http://www.w3.org/2000/svg" width="10" height="16" viewBox="0 0 10 16">
<title>smartphone</title>
<rect fill="#fff" x="0" y="0" width="10" height="16"></rect>
<path fill="#757575" d="M8.5 0h-7c-0.827 0-1.5 0.673-1.5 1.5v13c0 0.827 0.673 1.5 1.5 1.5h7c0.827 0 1.5-0.673 1.5-1.5v-13c0-0.827-0.673-1.5-1.5-1.5zM1.5 1h7c0.276 0 0.5 0.224 0.5 0.5v10.5h-8v-10.5c0-0.276 0.224-0.5 0.5-0.5zM8.5 15h-7c-0.276 0-0.5-0.224-0.5-0.5v-1.5h8v1.5c0 0.276-0.224 0.5-0.5 0.5z"></path>
<path fill="#757575" d="M2.354 13.739c0.195 0.182 0.195 0.478 0 0.66s-0.512 0.182-0.707 0c-0.195-0.182-0.195-0.478 0-0.66s0.512-0.182 0.707 0z"></path>
</svg>
